<?xml version="1.0" encoding="iso-8859-1"?>
<!-- Generator: Adobe Illustrator 19.0.0, SVG Export Plug-In . SVG Version: 6.00 Build 0)  -->
<svg version="1.1" id="Capa_1" xmlns="http://www.w3.org/2000/svg" xmlns:xlink="http://www.w3.org/1999/xlink" x="0px" y="0px"
	 height="50px" width="50px" viewBox="0 0 480.155 480.155" style="enable-background:new 0 0 480.155 480.155;" xml:space="preserve">
<g>
	<g>
		<path d="M479.821,168.167c-4.127-49.802-45.771-88.108-95.743-88.071c-14.227-0.011-28.277,3.16-41.12,9.28
			C334.89,32.556,282.288-6.964,225.469,1.104c-45.789,6.502-81.77,42.483-88.271,88.271C89.303,66.635,32.042,87.026,9.301,134.921
			c-22.741,47.895-2.349,105.156,45.546,127.897c10.447,4.96,21.705,7.992,33.231,8.949v200.328c0,4.418,3.582,8,8,8h288
			c4.418,0,8-3.582,8-8V271.768C444.916,267.389,484.2,221.005,479.821,168.167z M376.078,384.096h-256v16h256v64h-272v-96h272
			V384.096z M427.951,243.048c-13.041,8.529-28.29,13.064-43.873,13.048c-4.418,0-8,3.582-8,8v88H314.55l21.248-77.896l-15.44-4.208
			l-22.392,82.104h-49.888v-88h-16v88H182.19l-22.4-82.104l-15.44,4.208l21.256,77.896h-61.528v-88c0-4.418-3.582-8-8-8
			c-44.183,0.047-80.038-35.733-80.084-79.916c-0.047-44.183,35.733-80.038,79.916-80.084c15.583-0.016,30.831,4.519,43.873,13.048
			c3.698,2.417,8.656,1.379,11.073-2.319c0.825-1.263,1.277-2.733,1.303-4.241c0.656-48.557,40.55-87.389,89.107-86.733
			c47.633,0.643,86.09,39.101,86.733,86.733c0.075,4.418,3.718,7.938,8.135,7.863c1.508-0.026,2.978-0.477,4.241-1.303
			c36.977-24.184,86.557-13.813,110.74,23.164C475.298,169.284,464.927,218.864,427.951,243.048z"/>
	</g>
</g>
<g>
</g>
<g>
</g>
<g>
</g>
<g>
</g>
<g>
</g>
<g>
</g>
<g>
</g>
<g>
</g>
<g>
</g>
<g>
</g>
<g>
</g>
<g>
</g>
<g>
</g>
<g>
</g>
<g>
</g>
</svg>
